<svg xmlns="http://www.w3.org/2000/svg" viewBox="0 0 117.864 49.517">
  <defs>
    <style>
      .cls-1 {
        fill: #69b42e;
      }

      .cls-2 {
        fill: #3358a4;
      }

      .cls-3 {
        fill: none;
      }
    </style>
  </defs>
  <g id="Group_93" data-name="Group 93" transform="translate(-114 -16.383)">
    <g id="Group_84" data-name="Group 84" transform="translate(114 16.383)">
      <path id="Path_48" data-name="Path 48" class="cls-1" d="M28.726,1.334a113.938,113.938,0,0,1-2.532,11.448c-1.329,5.491-2.722,10.965-4.09,16.44a5.534,5.534,0,0,1-1.574,2.9,3.077,3.077,0,0,1-1.756.823,7.115,7.115,0,0,1-4.51-.981A4.205,4.205,0,0,1,12.3,28.874c-.119-.712-.174-1.432-.237-2.16-.024-.3-.127-.411-.443-.388-2.1.19-4.2.356-6.3.538-1.068.095-2.128.214-3.188.293-.309.024-.356.15-.324.435A18.919,18.919,0,0,0,2.863,32.26,21.461,21.461,0,0,1,28.726,1.334Z" transform="translate(0.053 -0.022)"/>
      <path id="Path_49" data-name="Path 49" class="cls-1" d="M682.2,510.513V500.6h63.886v9.913ZM718.127,506c0-1.527-.609-2.334-1.78-2.413a1.91,1.91,0,0,0-2.191,1.725,2.047,2.047,0,0,0,1.479,2.373,1.946,1.946,0,0,0,2.421-1.155c-.2-.055-.4-.111-.6-.174a.473.473,0,0,0-.633.158.849.849,0,0,1-1.013.2.667.667,0,0,1-.451-.7C716.275,506,717.193,506,718.127,506Zm12.864,2.405a2.476,2.476,0,0,1,.49.008,1.863,1.863,0,0,1,.38.182c-.127.1-.245.245-.38.261a3.445,3.445,0,0,1-.728-.055c.032.206.055.364.1.625.5-.079.973-.119,1.44-.229a.5.5,0,0,0,.356-.657c-.063-.182-.285-.324-.459-.459a1.809,1.809,0,0,0-.467-.135c.68-.491,1.622-.593,1.669-1.574-.356-.055-.72-.111-1.092-.174a.741.741,0,0,1-.823.546.726.726,0,0,1-.665-.641,2.325,2.325,0,0,1,.047-1.044.979.979,0,0,1,.57-.506.667.667,0,0,1,.767.348.4.4,0,0,0,.324.158c.285-.032.562-.119.839-.174-.166-.878-.87-1.337-1.97-1.313a1.888,1.888,0,0,0-1.867,1.741,2.057,2.057,0,0,0,1.693,2.421C731.133,507.942,731.07,508.148,730.991,508.4Zm5.1-.7a2.067,2.067,0,1,0-.071-4.13,2.065,2.065,0,0,0,.071,4.13Zm-26.306-1.274a1.276,1.276,0,0,0,.728,1.021,2.75,2.75,0,0,0,2.326.008,1.194,1.194,0,0,0,.57-1.574,1.288,1.288,0,0,0-.91-.625c-.388-.119-.783-.206-1.171-.324a.3.3,0,0,1-.182-.214c0-.071.111-.174.2-.206a.607.607,0,0,1,.807.19.286.286,0,0,0,.166.119c.348-.032.7-.087,1.06-.135a1.207,1.207,0,0,0-.688-.918,2.551,2.551,0,0,0-2.136.032,1.035,1.035,0,0,0-.6,1.06.941.941,0,0,0,.641.9,7.856,7.856,0,0,0,.87.245,6.106,6.106,0,0,1,.68.182.333.333,0,0,1,.166.277c0,.063-.119.158-.206.2a.84.84,0,0,1-1.036-.269.3.3,0,0,0-.221-.095C710.5,506.344,710.16,506.391,709.78,506.431Zm32.754-1.748a4.439,4.439,0,0,0-.641-.791,2.512,2.512,0,0,0-2.445,0,1.081,1.081,0,0,0,.15,1.875,5.66,5.66,0,0,0,.9.269,6.114,6.114,0,0,1,.68.182.357.357,0,0,1,.158.277c0,.063-.119.158-.206.2a.88.88,0,0,1-1.139-.4l-1.163.142a1.276,1.276,0,0,0,.862,1.076,3.011,3.011,0,0,0,2.089,0,1.146,1.146,0,0,0,.768-1.013,1.037,1.037,0,0,0-.854-1.187c-.427-.135-.862-.229-1.29-.356-.095-.032-.15-.15-.229-.229.079-.071.15-.182.245-.214a.591.591,0,0,1,.767.2.265.265,0,0,0,.166.119C741.7,504.793,742.043,504.746,742.534,504.682Zm-17.9,1.638c-.032,0-.055.008-.087.008-.253-.855-.514-1.717-.775-2.579h-1.337c.38.973.752,1.923,1.123,2.872.388,1,.388,1.013,1.456.941a.45.45,0,0,0,.324-.229c.443-1.092.862-2.2,1.289-3.3a2.429,2.429,0,0,0,.079-.285h-1.321C725.152,504.619,724.9,505.474,724.638,506.32Zm-4.486-2.563h-1.179v3.79h1.195c0-.625-.008-1.21,0-1.8a.941.941,0,0,1,1.131-1c.15.016.3.04.475.071.095-.372.19-.72.285-1.084a1.871,1.871,0,0,0-1.875.419C720.168,503.978,720.16,503.875,720.152,503.757Zm8.529,0h-1.25v3.655a.87.87,0,0,0,.024.127H728.7v-3.655A.258.258,0,0,0,728.681,503.757Zm-1.234-.522h1.226v-.9h-1.226Z" transform="translate(-628.223 -460.996)"/>
      <path id="Path_50" data-name="Path 50" class="cls-2" d="M147,98.7a21.484,21.484,0,0,1-28.7,31.449,1.494,1.494,0,0,1,.261.1,23.238,23.238,0,0,0,8.149,2.294,15.281,15.281,0,0,0,6.464-.68,11.35,11.35,0,0,0,6.764-6.306,29.606,29.606,0,0,0,1.6-5.19q2.682-10.7,5.372-21.4C146.932,98.882,146.964,98.8,147,98.7Z" transform="translate(-108.936 -90.893)"/>
      <path id="Path_51" data-name="Path 51" class="cls-2" d="M1242.1,138.588a9.831,9.831,0,0,1,1.4-5.245,8.324,8.324,0,0,1,6.108-3.853,11.2,11.2,0,0,1,6.052.6,8.089,8.089,0,0,1,5.1,6.448,10.884,10.884,0,0,1-.364,5.538,8.246,8.246,0,0,1-6.3,5.665,10.845,10.845,0,0,1-6.749-.483,8.1,8.1,0,0,1-5.008-6.432C1242.2,140.091,1242.171,139.332,1242.1,138.588Zm5.483-.245a7.774,7.774,0,0,0,.388,2.793,3.54,3.54,0,0,0,3.394,2.548,3.381,3.381,0,0,0,3.513-2.128,7.208,7.208,0,0,0-.063-5.942,3.3,3.3,0,0,0-3.181-2.017,3.547,3.547,0,0,0-3.323,1.812A6,6,0,0,0,1247.583,138.343Z" transform="translate(-1143.826 -119.096)"/>
      <path id="Path_52" data-name="Path 52" class="cls-2" d="M694.94,58.4h6.132c-.261,5.451-.071,10.894-.127,16.33a9.822,9.822,0,0,1-.435,3.03,6.407,6.407,0,0,1-3.948,4.09,11.921,11.921,0,0,1-7.334.356,7.606,7.606,0,0,1-5.356-4.66c-.119-.285-.229-.585-.372-.934,1.859-.641,3.687-1.266,5.538-1.907.127.348.229.672.348.989a2.739,2.739,0,0,0,3.141,1.994,4.241,4.241,0,0,0,1.535-.4,2.208,2.208,0,0,0,1.029-1.9,7.945,7.945,0,0,0,.024-.87c-.008-4.494-.008-8.988-.024-13.481C695.082,60.172,694.988,59.31,694.94,58.4Z" transform="translate(-629.42 -53.781)"/>
      <path id="Path_53" data-name="Path 53" class="cls-2" d="M1072.285,138.2h5.823c-.04,1.543-.111,3.054-.119,4.565-.016,4.272,0,8.545-.008,12.817a5.6,5.6,0,0,1-.617,2.666,4.849,4.849,0,0,1-3,2.35,10.489,10.489,0,0,1-7.516-.332,5.719,5.719,0,0,1-2.35-1.978c1.59-.7,3.141-1.369,4.7-2.049.111.19.2.364.308.53a1.678,1.678,0,0,0,1.946.657,1.317,1.317,0,0,0,1.021-1.329,3.333,3.333,0,0,0,.024-.4c-.016-4.889-.024-9.787-.055-14.676C1072.435,140.083,1072.34,139.157,1072.285,138.2Z" transform="translate(-980.277 -127.268)"/>
      <path id="Path_54" data-name="Path 54" class="cls-2" d="M1164.208,58.1h5.712v4.249h-5.72C1164.208,60.956,1164.208,59.564,1164.208,58.1Z" transform="translate(-1072.089 -53.505)"/>
      <path id="Path_55" data-name="Path 55" class="cls-1" d="M1102.943,550.658H1101.4a.662.662,0,0,1,.681-.586A.72.72,0,0,1,1102.943,550.658Z" transform="translate(-1014.257 -506.552)"/>
      <path id="Path_56" data-name="Path 56" class="cls-1" d="M1354.331,551.3c-.008.752-.364,1.163-.965,1.1-.554-.055-.846-.6-.736-1.385a.873.873,0,0,1,1.036-.823C1354.086,550.263,1354.339,550.682,1354.331,551.3Z" transform="translate(-1245.59 -506.648)"/>
      <g id="Group_32" data-name="Group 32" transform="translate(71.975 10.228)">
        <path id="Path_57" data-name="Path 57" class="cls-3" d="M982.809,183.5a3.522,3.522,0,0,0-3.37,2.12,6.389,6.389,0,0,0-.554,2.919l.111,1.3a8.25,8.25,0,0,0,.309,1.25,3.715,3.715,0,0,0,6.844.419,7.19,7.19,0,0,0-.047-5.973A3.311,3.311,0,0,0,982.809,183.5Z" transform="translate(-973.409 -179.211)"/>
        <path id="Path_58" data-name="Path 58" class="cls-2" d="M928.3,136.478a8.066,8.066,0,0,0-5.475-6.559,11.169,11.169,0,0,0-6.029-.372,8.076,8.076,0,0,0-6.551,5.6,11.125,11.125,0,0,0-.221,6.187,7.929,7.929,0,0,0,4.787,5.831,10.949,10.949,0,0,0,6.614.585,8.439,8.439,0,0,0,4.929-2.832,9.91,9.91,0,0,0,2.152-6.646A17.328,17.328,0,0,0,928.3,136.478Zm-5.87,5.119a3.715,3.715,0,0,1-6.844-.419,9.317,9.317,0,0,1-.308-1.25l-.111-1.3a6.494,6.494,0,0,1,.554-2.919,3.522,3.522,0,0,1,3.37-2.12,3.294,3.294,0,0,1,3.283,2.025A7.238,7.238,0,0,1,922.431,141.6Z" transform="translate(-909.693 -129.302)"/>
      </g>
    </g>
    <path id="Path_138" data-name="Path 138" class="cls-2" d="M7300.959-879.388h4.44l2.675-3.349,2.581,3.349h4.79l-4.6-5.905h-5.312Z" transform="translate(-7086.022 904.612)"/>
  </g>
</svg>
