<svg xmlns="http://www.w3.org/2000/svg" viewBox="-3256 7745 70 70"><defs><style>.a{fill:#231f20;}.b{fill:#fff;}</style></defs><g transform="translate(-3261 7739.6)"><path class="a" d="M40,75.4a35,35,0,1,0-35-35,35.038,35.038,0,0,0,35,35"/><path class="b" d="M62.1,29.3A2.3,2.3,0,1,0,59.8,27a2.326,2.326,0,0,0,2.3,2.3"/><path class="b" d="M64.1,32.9a1.025,1.025,0,0,0-1-1h-2c-.7,0-1,.3-1,1V55c0,.7.3,1,1,1h2c.7,0,1-.3,1-1ZM55.5,25H45.9c-.7,0-1,.3-1,1v2c0,.7.3,1,1,1h2.8V55a1.025,1.025,0,0,0,1,1h2a1.025,1.025,0,0,0,1-1V29h2.8c.7,0,1-.3,1-1V26c0-.7-.3-1-1-1M39.8,35.3h2c.7,0,1-.3,1-1V32.2a6.71,6.71,0,0,0-.6-2.8,7.93,7.93,0,0,0-3.9-3.9,6.833,6.833,0,0,0-5.6,0,7.93,7.93,0,0,0-3.9,3.9,6.71,6.71,0,0,0-.6,2.8v1.2a1.884,1.884,0,0,0,.2.8,5.9,5.9,0,0,0,.4.8q.3.45.9,1.2l8.7,11.5c.1.1.1.2.2.3v.8a3.337,3.337,0,0,1-.9,2.3,3.168,3.168,0,0,1-2.3.9,2.334,2.334,0,0,1-2-1,3.168,3.168,0,0,1-.9-2.3V46.6c0-.7-.3-1-1-1h-2c-.7,0-1,.3-1,1v2.1a6.71,6.71,0,0,0,.6,2.8A7.93,7.93,0,0,0,33,55.4a6.833,6.833,0,0,0,5.6,0,7.93,7.93,0,0,0,3.9-3.9,6.71,6.71,0,0,0,.6-2.8V47.5a1.884,1.884,0,0,0-.2-.8,2.994,2.994,0,0,0-.4-.8q-.3-.45-.9-1.2L32.9,33.2c-.1-.1-.1-.2-.2-.3v-.8a3.337,3.337,0,0,1,.9-2.3,3.168,3.168,0,0,1,2.3-.9,3.337,3.337,0,0,1,2.3.9,3.168,3.168,0,0,1,.9,2.3v2.1c-.3.8,0,1.1.7,1.1M21.8,25H16.5c-.7,0-1,.3-1,1v2c0,.7.3,1,1,1h3.3V55a1.025,1.025,0,0,0,1,1h2a1.08,1.08,0,0,0,.7-.3.908.908,0,0,0,.3-.7V27a1.678,1.678,0,0,0-.6-1.4,1.816,1.816,0,0,0-1.4-.6"/></g></svg>