<svg xmlns="http://www.w3.org/2000/svg" viewBox="2182 5389 48 48"><defs><style>.a{fill:#231f20;}.b{fill:#fff;}</style></defs><g transform="translate(2177 5383.6)"><g transform="translate(5 5.4)"><path class="a" d="M29,53.4a24,24,0,1,0-24-24,24.026,24.026,0,0,0,24,24" transform="translate(-5 -5.4)"/><path class="b" d="M61.377,27.854A1.577,1.577,0,1,0,59.8,26.277a1.6,1.6,0,0,0,1.577,1.577" transform="translate(-22.223 -11.466)"/><path class="b" d="M48.826,30.386a.7.7,0,0,0-.686-.686H46.769c-.48,0-.686.206-.686.686V45.54c0,.48.206.686.686.686H48.14c.48,0,.686-.206.686-.686Zm-5.9-5.417H36.346c-.48,0-.686.206-.686.686v1.371c0,.48.206.686.686.686h1.92V45.54a.7.7,0,0,0,.686.686h1.371a.7.7,0,0,0,.686-.686V27.711h1.92c.48,0,.686-.206.686-.686V25.654c0-.48-.206-.686-.686-.686M32.163,32.031h1.371c.48,0,.686-.206.686-.686v-1.44a4.6,4.6,0,0,0-.411-1.92,5.438,5.438,0,0,0-2.674-2.674,4.686,4.686,0,0,0-3.84,0,5.438,5.438,0,0,0-2.674,2.674,4.6,4.6,0,0,0-.411,1.92v.823a1.292,1.292,0,0,0,.137.549,4.043,4.043,0,0,0,.274.549q.206.309.617.823L31.2,40.534c.069.069.069.137.137.206v.549a2.288,2.288,0,0,1-.617,1.577,2.172,2.172,0,0,1-1.577.617,1.6,1.6,0,0,1-1.371-.686,2.172,2.172,0,0,1-.617-1.577V39.78c0-.48-.206-.686-.686-.686H25.1c-.48,0-.686.206-.686.686v1.44a4.6,4.6,0,0,0,.411,1.92A5.438,5.438,0,0,0,27.5,45.814a4.686,4.686,0,0,0,3.84,0,5.437,5.437,0,0,0,2.674-2.674,4.6,4.6,0,0,0,.411-1.92V40.4a1.292,1.292,0,0,0-.137-.549,2.053,2.053,0,0,0-.274-.549q-.206-.309-.617-.823l-5.966-7.886c-.069-.069-.069-.137-.137-.206v-.549a2.288,2.288,0,0,1,.617-1.577,2.172,2.172,0,0,1,1.577-.617,2.288,2.288,0,0,1,1.577.617,2.172,2.172,0,0,1,.617,1.577v1.44c-.206.549,0,.754.48.754M19.82,24.969H16.186c-.48,0-.686.206-.686.686v1.371c0,.48.206.686.686.686h2.263V45.54a.7.7,0,0,0,.686.686h1.371a.741.741,0,0,0,.48-.206.623.623,0,0,0,.206-.48V26.34a1.151,1.151,0,0,0-.411-.96,1.245,1.245,0,0,0-.96-.411" transform="translate(-8.3 -11.529)"/></g></g></svg>