<svg xmlns="http://www.w3.org/2000/svg" viewBox="0 0 193.48 81.18"><defs><style>.cls-1{fill:#f6db00;}.cls-2{fill:#211915;}.cls-3{fill:#bb006d;}</style></defs><title>Ativo 1</title><g id="Camada_2" data-name="Camada 2"><g id="Camada_1-2" data-name="Camada 1"><polygon class="cls-1" points="30.91 12.56 35.03 12.56 34.45 0 18.21 12.56 24.04 12.56 0.58 37.82 14.98 37.82 0 59.12 25.21 59.12 34.68 28.4 24.13 28.4 30.91 12.56 30.91 12.56"/><path class="cls-2" d="M88.71,49.59H82.39a1.68,1.68,0,0,0-1.62-2.42,2.19,2.19,0,0,0-2.42,1.75c-.85,3.86,10.32,2.78,8.57,11.71-1,5.07-4.94,7.22-10.14,7s-8.35-3.5-7.27-8.71h6.42c-.59,1.93.58,2.65,1.84,2.69a2.38,2.38,0,0,0,2.69-2c.67-3.54-10-3-8.44-11.53.9-4.75,4.76-7.09,9.69-6.91s8.12,3.37,7,8.39Z" transform="translate(-23.26 -21.6)"/><path class="cls-2" d="M91.4,47.12c3,0,4-1.16,4.76-4.62h4.26l-.9,4.27h3l-1.21,5.47h-3l-1.8,8.16c-.27,1.39.45,2,2.69,1.57l-1.16,5.48c-7,.67-8.66-2.34-7.54-7.72l1.61-7.45H90.24l1.16-5.16Z" transform="translate(-23.26 -21.6)"/><path class="cls-2" d="M110,67.22l.32-1.7a5.67,5.67,0,0,1-4.53,2c-2.74,0-5.39-2-4.62-5.93,1.34-7,11-5.74,11.61-8.74.18-.86-.26-1.44-1.25-1.44a2.11,2.11,0,0,0-2.2,1.89h-5.88c1.08-4.94,3.68-6.87,8.62-6.87,4.62,0,7.71,2.2,6.55,7.67-.09.63-2.78,13.15-2.78,13.15H110v0Zm1.57-9.15c-.71,1.08-3.76,1-4.17,3-.27,1.17.36,1.48,1.17,1.48A2.88,2.88,0,0,0,111.18,60v-.09l.36-1.84Z" transform="translate(-23.26 -21.6)"/><path class="cls-2" d="M132.94,52.6c-2.91-.27-4.66.72-5.34,3.95l-2.24,10.63h-6.15l4.36-20.41h5.78L129,48.56s1.44-2.47,5.25-2l-1.3,6.06Z" transform="translate(-23.26 -21.6)"/><path class="cls-2" d="M135.77,47.12c3,0,4-1.16,4.75-4.62h4.26l-.89,4.27h3l-1.21,5.47h-3l-1.79,8.16c-.27,1.39.45,2,2.69,1.57l-1.17,5.48c-7,.67-8.66-2.34-7.53-7.72l1.61-7.45H134.6l1.17-5.16Z" transform="translate(-23.26 -21.6)"/><path class="cls-2" d="M158.51,46.77h6.15l-2.74,12.74c-1.12,5.29-3.81,8.07-8.84,8.07s-7.62-3.09-6.59-8.07l2.74-12.74h6.14l-3,13.63c-.27,1.39.49,1.71,1.21,1.71a2,2,0,0,0,2-1.71l2.91-13.63Z" transform="translate(-23.26 -21.6)"/><path class="cls-2" d="M168.11,46.77h5.79l-.36,1.75a5,5,0,0,1,4.13-2c3.27,0,5.51,1.79,4.39,7.08l-1.48,6.82c-1.12,5.3-3.36,7.09-6.64,7.09a4,4,0,0,1-3.72-2l-1.88,8.88h-6.11l5.88-27.58Zm7.67,7.13c.27-1.39-.49-1.71-1.21-1.71a1.93,1.93,0,0,0-1.93,1.71l-1.3,6.23c-.27,1.39.5,1.71,1.17,1.71a2,2,0,0,0,2-1.71l1.3-6.23Z" transform="translate(-23.26 -21.6)"/><polygon class="cls-2" points="166.16 45.62 159.7 45.62 165.17 19.96 171.63 19.96 166.16 45.62 166.16 45.62"/><polygon class="cls-2" points="188 45.62 181.86 45.62 179.62 34.32 177.24 45.62 170.73 45.62 176.21 19.96 182.35 19.96 184.55 31.36 186.97 19.96 193.48 19.96 188 45.62 188 45.62"/><path class="cls-3" d="M84.29,82H73.22l-4.33,20.42h4L74.7,94h5.15l.72-3.49H75.43l1-4.65h7L84.29,82Zm6.83,5,.35,8H87.23l3.89-8Zm.73,15.51h4L94.29,82H89.93l-10.4,20.48h4.15l1.95-4h6l.24,4Zm9.12,0h4.24L115.09,82h-4.21l-6.57,14.18L103.85,82h-4c.34,6.83.69,13.65,1.1,20.48ZM128.92,82h-11.5l-4.36,20.48h11.5l.82-3.83h-7.47l1-4.65h5.55l.72-3.49h-5.55l1-4.65h7.47l.81-3.86Zm11,16.65h-6.8L136.65,82h-4l-4.36,20.48h10.84l.82-3.83Zm11.94-11.68.35,8H148l3.89-8Zm.73,15.51h4L155,82h-4.36l-10.4,20.48h4.15l2-4h6l.24,4Zm16.67-5.84c-.29,1.72-1.59,2.47-3.31,2.47s-2.93-1-2.41-3.37h-4c-.9,4.39,1.92,7.09,6,7.09s7.24-2.26,7.7-6.22c.85-7.17-8.19-4.91-7.76-9a2.7,2.7,0,0,1,3-2.35c1.74,0,2.79,1,2.32,3.2h4c.93-4.22-1.83-6.86-5.81-6.86s-6.88,2.21-7.41,6c-1,7,8.37,5.21,7.7,9Z" transform="translate(-23.26 -21.6)"/></g></g></svg>